<svg width="21" height="21" viewBox="0 0 21 21" fill="none" xmlns="http://www.w3.org/2000/svg">
<path d="M11.2109 21V12.8652H8.47656V9.69336H11.2109V7.35547C11.2109 4.64844 12.8789 3.17188 15.2988 3.17188C16.4473 3.17188 17.4453 3.25391 17.7324 3.29492V6.125L16.0645 6.13867C14.7383 6.13867 14.4922 6.75391 14.4922 7.66992V9.69336H17.623L17.2129 12.8652H14.4922V21H17.0625C19.2363 21 21 19.2363 21 17.0625V3.9375C21 1.76367 19.2363 0 17.0625 0H3.9375C1.76367 0 0 1.76367 0 3.9375V17.0625C0 19.2363 1.76367 21 3.9375 21H11.2109Z" fill="#1877F2"/>
</svg>
